HIERARCHY
ROOT Hips
{
	OFFSET 0.000000 0.000000 0.000000
	CHANNELS 6 Xposition Yposition Zposition Xrotation Yrotation Zrotation
	JOINT LeftUpLeg_virtual
	{
		OFFSET 0.000000 0.000000 0.000000
		CHANNELS 3 Xrotation Yrotation Zrotation
		JOINT LeftUpLeg
		{
			OFFSET 10.205400 -3.823500 0.155100
			CHANNELS 3 Xrotation Yrotation Zrotation
			JOINT LeftLeg
			{
				OFFSET 0.708757 -12.982077 0.567790
				CHANNELS 3 Xrotation Yrotation Zrotation
				JOINT LeftFoot
				{
					OFFSET -0.708756 -10.717838 -2.184338
					CHANNELS 3 Xrotation Yrotation Zrotation
					JOINT LeftToeBase
					{
						OFFSET 0.108149 -7.191104 7.560241
						CHANNELS 3 Xrotation Yrotation Zrotation
						JOINT LeftToe_End
						{
							OFFSET 0.070230 0.081724 4.490308
							CHANNELS 3 Xrotation Yrotation Zrotation
							End Site
							{
								OFFSET 0 0 0
							}
						}
					}
				}
			}
		}
	}
	JOINT RightUpLeg_virtual
	{
		OFFSET 0.000000 0.000000 0.000000
		CHANNELS 3 Xrotation Yrotation Zrotation
		JOINT RightUpLeg
		{
			OFFSET -10.205400 -3.823500 0.005500
			CHANNELS 3 Xrotation Yrotation Zrotation
			JOINT RightLeg
			{
				OFFSET -0.708756 -12.982134 0.610632
				CHANNELS 3 Xrotation Yrotation Zrotation
				JOINT RightFoot
				{
					OFFSET 0.708754 -10.717769 -1.945823
					CHANNELS 3 Xrotation Yrotation Zrotation
					JOINT RightToeBase
					{
						OFFSET -0.108140 -7.191069 7.372968
						CHANNELS 3 Xrotation Yrotation Zrotation
						JOINT RightToe_End
						{
							OFFSET -0.070227 0.081735 4.479403
							CHANNELS 3 Xrotation Yrotation Zrotation
							End Site
							{
								OFFSET 0 0 0
							}
						}
					}
				}
			}
		}
	}
	JOINT Spine_virtual
	{
		OFFSET 0.000000 0.000000 0.000000
		CHANNELS 3 Xrotation Yrotation Zrotation
		JOINT Spine
		{
			OFFSET 0.000000 6.876099 0.125700
			CHANNELS 3 Xrotation Yrotation Zrotation
			JOINT Spine1
			{
				OFFSET 0.000000 5.730043 0.104720
				CHANNELS 3 Xrotation Yrotation Zrotation
				JOINT Spine1_split
				{
					OFFSET 0.000000 5.730043 0.104720
					CHANNELS 3 Xrotation Yrotation Zrotation
					JOINT Spine2
					{
						OFFSET 0.000000 5.730043 0.104720
						CHANNELS 3 Xrotation Yrotation Zrotation
						JOINT Neck_virtual
						{
							OFFSET 0.000000 0.000000 0.000000
							CHANNELS 3 Xrotation Yrotation Zrotation
							JOINT Neck
							{
								OFFSET 0.000000 10.314075 0.188496
								CHANNELS 3 Xrotation Yrotation Zrotation
								JOINT Head
								{
									OFFSET 0.000000 7.643700 -2.377400
									CHANNELS 3 Xrotation Yrotation Zrotation
									JOINT HeadTop_End
									{
										OFFSET 0.000000 43.788605 -13.619600
										CHANNELS 3 Xrotation Yrotation Zrotation
										End Site
										{
											OFFSET 0 0 0
										}
									}
								}
							}
						}
						JOINT LeftShoulder_virtual
						{
							OFFSET 0.000000 0.000000 0.000000
							CHANNELS 3 Xrotation Yrotation Zrotation
							JOINT LeftShoulder
							{
								OFFSET 2.196100 4.412489 0.087492
								CHANNELS 3 Xrotation Yrotation Zrotation
								JOINT LeftShoulder_split
								{
									OFFSET 2.196100 4.412489 0.087492
									CHANNELS 3 Xrotation Yrotation Zrotation
									JOINT LeftArm
									{
										OFFSET 8.771219 -2.981674 -0.026999
										CHANNELS 3 Xrotation Yrotation Zrotation
										JOINT LeftForeArm
										{
											OFFSET 8.512804 0.000000 -0.000000
											CHANNELS 3 Xrotation Yrotation Zrotation
											JOINT LeftHand
											{
												OFFSET 18.484802 0.000000 -0.000000
												CHANNELS 3 Xrotation Yrotation Zrotation
												End Site
												{
													OFFSET 0 0 0
												}
											}
										}
									}
								}
							}
						}
						JOINT RightShoulder_virtual
						{
							OFFSET 0.000000 0.000000 0.000000
							CHANNELS 3 Xrotation Yrotation Zrotation
							JOINT RightShoulder
							{
								OFFSET -2.196100 4.412496 0.070690
								CHANNELS 3 Xrotation Yrotation Zrotation
								JOINT RightShoulder_split
								{
									OFFSET -2.196100 4.412496 0.070690
									CHANNELS 3 Xrotation Yrotation Zrotation
									JOINT RightArm
									{
										OFFSET -8.771282 -2.981682 -0.094208
										CHANNELS 3 Xrotation Yrotation Zrotation
										JOINT RightForeArm
										{
											OFFSET -8.494598 0.000000 0.000000
											CHANNELS 3 Xrotation Yrotation Zrotation
											JOINT RightHand
											{
												OFFSET -18.483803 0.000000 0.000001
												CHANNELS 3 Xrotation Yrotation Zrotation
												End Site
												{
													OFFSET 0 0 0
												}
											}
										}
									}
								}
							}
						}
					}
				}
			}
		}
	}
}
MOTION
Frames: 10
Frame Time: 0.03333333
5.668762 27.765274 28.729748 0.000000 0.000000 0.000000 163.092582 49.687956 -173.125023 -67.070928 -14.504993 17.986743 30.976609 -41.077301 3.997780 10.291987 -1.709278 -31.705263 0.463466 1.839608 -4.426870 0.000000 0.000000 0.000000 163.092582 49.687956 -173.125023 -12.199076 -27.946610 -28.904954 41.598656 1.209626 7.921016 -28.545790 -12.453372 27.116643 0.119870 -2.068507 0.002519 0.000000 0.000000 0.000000 163.092582 49.687956 -173.125023 12.620792 3.600300 -3.504747 11.663236 11.031785 -15.073992 0.000000 0.000000 0.000000 0.000000 0.000000 0.000000 0.830136 14.573228 -10.818431 11.049074 7.758151 8.929905 -10.080371 11.211611 -3.802283 0.000000 0.000000 0.000000 0.830136 14.573228 -10.818431 0.560207 12.569489 -8.809888 0.000000 0.000000 0.000000 21.591051 29.149608 -64.927211 -59.006954 -28.841727 -29.005344 0.000000 0.000000 0.000000 0.830136 14.573228 -10.818431 1.220478 16.569697 3.011188 0.000000 0.000000 0.000000 -64.817874 30.099991 76.400898 53.142953 8.465454 3.719467 0.000000 0.000000 0.000000 
5.539641 27.974907 28.524750 0.000000 0.000000 0.000000 161.709633 54.508748 -171.297934 -65.509574 -15.301678 20.953554 37.391833 -38.340458 4.288731 5.487597 0.006397 -29.000983 0.257153 1.815667 -4.645043 0.000000 0.000000 0.000000 161.709633 54.508748 -171.297934 -17.439515 -25.860995 -31.687980 42.108533 4.802375 8.386052 -26.672732 -10.833705 24.700010 0.117181 -1.459243 0.001739 0.000000 0.000000 0.000000 161.709633 54.508748 -171.297934 12.229497 3.311626 -3.362281 10.965557 10.728927 -14.870418 0.000000 0.000000 0.000000 0.000000 0.000000 0.000000 0.112389 14.271527 -10.661715 11.492986 7.964789 9.125445 -9.194663 11.332437 -3.605139 0.000000 0.000000 0.000000 0.112389 14.271527 -10.661715 0.813235 12.488594 -10.557306 0.000000 0.000000 0.000000 13.645977 26.593002 -57.689164 -53.947078 -30.883807 -28.900842 0.000000 0.000000 0.000000 0.112389 14.271527 -10.661715 1.273171 15.702844 2.792991 0.000000 0.000000 0.000000 -54.445675 25.923085 69.909868 52.735932 24.416333 -3.568420 0.000000 0.000000 0.000000 
5.402366 28.084965 28.268545 0.000000 0.000000 0.000000 159.454714 59.617504 -168.460482 -63.446713 -15.797743 24.076593 43.478461 -36.097710 4.011169 0.297560 2.237446 -26.281989 0.054827 1.792239 -4.889563 0.000000 0.000000 0.000000 159.454714 59.617504 -168.460482 -22.700422 -22.120153 -33.200324 43.580309 7.249006 7.656359 -24.728464 -9.885399 23.506798 0.115003 -1.116134 0.001281 0.000000 0.000000 0.000000 159.454714 59.617504 -168.460482 11.860488 2.931231 -3.378974 10.229994 10.162650 -14.847122 0.000000 0.000000 0.000000 0.000000 0.000000 0.000000 -0.614453 13.733323 -10.758697 11.010717 8.424220 9.546988 -8.439472 11.806063 -3.339571 0.000000 0.000000 0.000000 -0.614453 13.733323 -10.758697 1.071484 10.980998 -12.641544 0.000000 0.000000 0.000000 4.703250 23.263365 -48.179420 -46.562520 -32.888433 -28.000965 0.000000 0.000000 0.000000 -0.614453 13.733323 -10.758697 1.324169 15.108472 2.201990 0.000000 0.000000 0.000000 -47.206207 21.442324 61.337346 50.425159 43.036571 -2.171569 0.000000 0.000000 0.000000 
5.232058 28.105572 27.882195 0.000000 0.000000 0.000000 157.417815 65.292032 -165.796217 -59.837505 -16.563222 26.731205 50.682753 -34.860739 4.244223 -6.243385 6.467146 -23.442384 -0.139873 1.772478 -5.138607 0.000000 0.000000 0.000000 157.417815 65.292032 -165.796217 -26.749954 -17.271692 -33.130939 44.831179 8.654508 5.725532 -22.125331 -9.256543 23.754136 0.058875 -0.927783 0.159367 0.000000 0.000000 0.000000 157.417815 65.292032 -165.796217 11.770514 2.391159 -3.390310 10.011894 9.195034 -14.668209 0.000000 0.000000 0.000000 0.000000 0.000000 0.000000 -0.814485 12.775094 -10.790363 9.041962 8.984294 9.654734 -7.873767 12.396018 -3.030014 0.000000 0.000000 0.000000 -0.814485 12.775094 -10.790363 1.202602 7.891129 -14.786542 0.000000 0.000000 0.000000 -3.782319 19.006840 -37.941117 -39.607581 -33.310696 -28.196797 0.000000 0.000000 0.000000 -0.814485 12.775094 -10.790363 1.346344 13.894983 1.338434 0.000000 0.000000 0.000000 -42.651318 18.252098 54.400838 47.636741 58.063602 0.413406 0.000000 0.000000 0.000000 
5.028614 28.095146 27.332594 0.000000 0.000000 0.000000 154.578697 70.621082 -162.717168 -55.776920 -17.286927 28.548762 57.409448 -32.296044 4.847736 -12.948598 9.512229 -21.108056 -0.327153 1.754490 -5.375916 0.000000 0.000000 0.000000 154.578697 70.621082 -162.717168 -29.603778 -13.127436 -32.060437 44.444215 9.489283 3.351795 -19.022692 -8.689321 25.041885 0.567577 -0.494624 1.356490 0.000000 0.000000 0.000000 154.578697 70.621082 -162.717168 11.789501 1.605036 -3.324045 9.913037 7.662630 -14.310633 0.000000 0.000000 0.000000 0.000000 0.000000 0.000000 -0.857365 11.201512 -10.776183 4.698424 9.005001 9.354300 -5.505533 12.006162 -1.300543 0.000000 0.000000 0.000000 -0.857365 11.201512 -10.776183 1.040647 4.643211 -14.647375 0.000000 0.000000 0.000000 -11.365991 12.556710 -29.944915 -24.361564 -33.733509 -22.907532 0.000000 0.000000 0.000000 -0.857365 11.201512 -10.776183 1.281190 12.895618 0.941452 0.000000 0.000000 0.000000 -38.988991 15.677149 47.455389 40.479157 70.754148 6.254726 0.000000 0.000000 0.000000 
4.835502 28.207470 26.598026 0.000000 0.000000 0.000000 148.911716 74.870273 -157.190889 -52.772630 -16.877013 29.491282 62.440654 -28.734582 5.433417 -18.394522 10.444430 -19.245296 -0.498626 1.742797 -5.589058 0.000000 0.000000 0.000000 148.911716 74.870273 -157.190889 -31.254160 -10.652566 -30.837549 41.131078 9.951203 1.376221 -15.649090 -7.941869 26.843552 0.592184 -0.455110 4.826043 0.000000 0.000000 0.000000 148.911716 74.870273 -157.190889 11.702967 0.697747 -3.171678 9.566009 5.817760 -14.008151 0.000000 0.000000 0.000000 0.000000 0.000000 0.000000 -1.097709 9.276885 -10.877561 2.143967 8.133628 9.404365 -4.311863 10.945576 -0.034404 0.000000 0.000000 0.000000 -1.097709 9.276885 -10.877561 0.683787 1.920386 -13.202809 0.000000 0.000000 0.000000 -16.801430 5.667615 -24.889746 -9.904973 -33.091454 -15.719504 0.000000 0.000000 0.000000 -1.097709 9.276885 -10.877561 1.007807 12.107938 2.298637 0.000000 0.000000 0.000000 -34.753369 11.977900 40.331284 41.491958 82.735639 2.252638 0.000000 0.000000 0.000000 
4.585393 28.545860 25.623104 0.000000 0.000000 0.000000 134.267640 77.664087 -142.887557 -51.531687 -15.710712 29.787247 65.108901 -24.796384 4.659669 -22.082850 10.227105 -17.076072 -0.620256 1.734675 -5.738742 0.000000 0.000000 0.000000 134.267640 77.664087 -142.887557 -31.820308 -8.975313 -29.675505 36.275094 7.643834 -0.256429 -15.928286 -8.173628 29.410583 -0.601927 -0.610686 4.782003 0.000000 0.000000 0.000000 134.267640 77.664087 -142.887557 11.162969 -0.192576 -2.768759 8.309122 4.024610 -13.473375 0.000000 0.000000 0.000000 0.000000 0.000000 0.000000 -2.266010 7.318477 -10.729773 4.173993 6.801282 7.490957 -5.929067 8.445584 1.870080 0.000000 0.000000 0.000000 -2.266010 7.318477 -10.729773 0.589587 -2.688445 -10.792110 0.000000 0.000000 0.000000 -20.186993 1.237694 -22.495049 -2.781871 -31.723439 -11.198613 0.000000 0.000000 0.000000 -2.266010 7.318477 -10.729773 0.953748 9.350876 2.755534 0.000000 0.000000 0.000000 -29.917502 8.102770 36.081055 -158.973923 89.016626 -159.792330 0.000000 0.000000 0.000000 
4.202590 29.147430 24.185467 0.000000 0.000000 0.000000 114.893481 78.725648 -124.078227 -51.897659 -13.533532 28.898711 66.749342 -21.205985 3.156313 -24.319220 9.137915 -13.456336 -0.702869 1.730006 -5.840920 0.000000 0.000000 0.000000 114.893481 78.725648 -124.078227 -31.624957 -7.226655 -27.372734 34.150085 2.352937 -2.035626 -21.723546 -9.364173 26.830684 3.078463 -0.974031 5.692607 0.000000 0.000000 0.000000 114.893481 78.725648 -124.078227 10.587751 -0.970224 -2.121788 7.168732 2.480038 -12.447539 0.000000 0.000000 0.000000 0.000000 0.000000 0.000000 -3.404412 5.564339 -10.035396 8.558593 4.893173 7.202866 -9.123308 6.145788 2.160145 0.000000 0.000000 0.000000 -3.404412 5.564339 -10.035396 0.647692 -7.193507 -9.010405 0.000000 0.000000 0.000000 -23.217174 -3.611657 -21.600816 0.094215 -31.025362 -7.971247 0.000000 0.000000 0.000000 -3.404412 5.564339 -10.035396 0.793195 6.773752 3.146255 0.000000 0.000000 0.000000 -25.068222 3.196870 31.384190 -111.428703 81.371472 151.457860 0.000000 0.000000 0.000000 
3.791784 29.815937 22.466881 0.000000 0.000000 0.000000 94.582684 78.893316 -103.867670 -51.766960 -10.108625 26.870929 67.636208 -17.139765 1.834291 -26.225153 7.748073 -9.422533 -0.757141 1.730458 -5.907023 0.000000 0.000000 0.000000 94.582684 78.893316 -103.867670 -30.131878 -7.330513 -24.928145 33.449263 -6.532486 -3.552511 -26.464604 -9.758041 23.400628 7.256079 -1.731339 7.164981 0.000000 0.000000 0.000000 94.582684 78.893316 -103.867670 10.303474 -1.764936 -1.427977 6.759876 0.953107 -10.945627 0.000000 0.000000 0.000000 0.000000 0.000000 0.000000 -3.890915 3.789517 -8.880111 11.542105 3.553844 7.540792 -12.326744 4.538263 2.581127 0.000000 0.000000 0.000000 -3.890915 3.789517 -8.880111 0.732731 -10.668577 -7.807289 0.000000 0.000000 0.000000 -25.641283 -7.974808 -21.156858 12.390008 -30.384319 0.445502 0.000000 0.000000 0.000000 -3.890915 3.789517 -8.880111 0.690966 4.865332 2.497947 0.000000 0.000000 0.000000 -20.892709 -1.061965 28.674459 -113.313542 76.185091 150.523081 0.000000 0.000000 0.000000 
3.402642 30.435970 20.730015 0.000000 0.000000 0.000000 59.598701 78.049760 -68.370398 -47.349030 -4.818351 26.041824 67.714113 -11.670559 0.310352 -30.081946 7.090242 -6.465227 -0.776432 1.741957 -5.930742 0.000000 0.000000 0.000000 59.598701 78.049760 -68.370398 -28.714279 -9.704297 -23.872428 29.323696 -7.152230 -2.510353 -23.803471 -7.719844 21.039467 5.816374 -3.782120 8.877846 0.000000 0.000000 0.000000 59.598701 78.049760 -68.370398 10.365364 -2.213634 -0.994305 7.104933 0.069424 -9.533711 0.000000 0.000000 0.000000 0.000000 0.000000 0.000000 -3.628935 2.681768 -7.690693 10.681342 2.909144 8.145068 -12.253329 3.859332 3.230779 0.000000 0.000000 0.000000 -3.628935 2.681768 -7.690693 0.819280 -9.522907 -5.614827 0.000000 0.000000 0.000000 -29.524463 -14.850226 -25.349907 16.872008 -29.380653 4.606521 0.000000 0.000000 0.000000 -3.628935 2.681768 -7.690693 0.568159 2.969226 1.650750 0.000000 0.000000 0.000000 -18.541240 -2.441654 28.737570 -119.432620 75.803215 151.756995 0.000000 0.000000 0.000000 
